<svg width="19" height="18" viewBox="0 0 19 18" fill="none" xmlns="http://www.w3.org/2000/svg">
<path d="M9.77234 2.38866C8.23906 2.38866 7.17423 1.03182 5.66107 1.03182C4.14842 1.03182 1.03182 2.42271 1.03182 7.22272C1.03182 12.0238 3.79967 15.1161 4.10921 15.4773C4.41876 15.8389 5.13432 16.767 6.24353 16.767C7.35273 16.767 8.56667 15.8853 9.77234 15.8853C10.978 15.8853 12.4958 16.7676 13.4869 16.7676C14.4774 16.7676 14.885 16.3636 15.5588 15.6666C16.2326 14.9696 17.5192 12.8446 17.9681 11.5682C17.2288 11.1276 15.2678 9.93279 15.2678 7.22324C15.2678 5.41721 15.9278 3.91678 17.2479 2.72193C16.3818 1.59553 15.3775 1.03233 14.235 1.03233C12.5206 1.03233 11.3061 2.38866 9.77234 2.38866Z" fill="#073E24" stroke="#073E24" stroke-width="2" stroke-linejoin="round"/>
</svg>
