<svg width="20" height="20" viewBox="0 0 20 20" fill="none" xmlns="http://www.w3.org/2000/svg">
<path fill-rule="evenodd" clip-rule="evenodd" d="M10.0374 19.9985C7.34098 19.9597 4.76733 18.865 2.86919 16.9495C1.94145 16.0136 1.20988 14.9019 0.717383 13.6796C0.224886 12.4573 -0.0186305 11.1489 0.00111106 9.83127C0.0635148 7.20086 1.16522 4.70225 3.0652 2.88208C4.98894 1.03898 7.54823 0.00695468 10.2124 0H10.3884C12.8334 0.0121355 15.1882 0.925002 17.0026 2.56407L14.4575 4.88013C13.3195 3.86858 11.849 3.31114 10.3264 3.31409C8.54104 3.30754 6.82263 3.99325 5.53226 5.22714C4.90118 5.83025 4.3956 6.55221 4.04462 7.35147C3.69365 8.15073 3.50421 9.01151 3.48721 9.88427C3.47308 10.7569 3.63214 11.6236 3.95519 12.4343C4.27824 13.2451 4.75887 13.9837 5.36926 14.6074C6.61743 15.8824 8.31095 16.6243 10.0944 16.6775H10.2374C11.6474 16.7495 13.0375 16.3234 14.1545 15.4774C15.2661 14.6399 16.0375 13.4288 16.3266 12.0673L16.3696 11.9503H10.2204V8.54023H19.8987C19.974 9.15825 20.0073 9.77794 19.9987 10.3993C19.8997 16.1404 15.9815 19.9995 10.2524 19.9995L10.0374 19.9985Z" fill="#073E24"/>
</svg>
