<svg width="18" height="21" viewBox="0 0 18 21" fill="none" xmlns="http://www.w3.org/2000/svg">
<path d="M9 9.5C9.7 9.5 10.2917 9.25833 10.775 8.775C11.2583 8.29167 11.5 7.7 11.5 7C11.5 6.3 11.2583 5.70833 10.775 5.225C10.2917 4.74167 9.7 4.5 9 4.5C8.3 4.5 7.70833 4.74167 7.225 5.225C6.74167 5.70833 6.5 6.3 6.5 7C6.5 7.7 6.74167 8.29167 7.225 8.775C7.70833 9.25833 8.3 9.5 9 9.5ZM9 14C8.35 14 7.7625 13.8208 7.2375 13.4625C6.7125 13.1042 6.33333 12.6333 6.1 12.05C6.01667 12.05 5.94167 12.0542 5.875 12.0625C5.80833 12.0708 5.73333 12.075 5.65 12.075C4.78333 12.075 4.04167 11.7667 3.425 11.15C2.80833 10.5333 2.5 9.79167 2.5 8.925C2.5 8.575 2.55833 8.2375 2.675 7.9125C2.79167 7.5875 2.96667 7.28333 3.2 7C2.98333 6.71667 2.81667 6.4125 2.7 6.0875C2.58333 5.7625 2.525 5.425 2.525 5.075C2.525 4.20833 2.82917 3.46667 3.4375 2.85C4.04583 2.23333 4.78333 1.925 5.65 1.925C5.73333 1.925 5.80833 1.92917 5.875 1.9375C5.94167 1.94583 6.01667 1.95 6.1 1.95C6.33333 1.36667 6.7125 0.895833 7.2375 0.5375C7.7625 0.179167 8.35 0 9 0C9.65 0 10.2375 0.179167 10.7625 0.5375C11.2875 0.895833 11.6667 1.36667 11.9 1.95C11.9833 1.95 12.0583 1.94583 12.125 1.9375C12.1917 1.92917 12.2667 1.925 12.35 1.925C13.2167 1.925 13.9542 2.23333 14.5625 2.85C15.1708 3.46667 15.475 4.20833 15.475 5.075C15.475 5.425 15.4208 5.7625 15.3125 6.0875C15.2042 6.4125 15.0333 6.71667 14.8 7C15.0167 7.28333 15.1833 7.5875 15.3 7.9125C15.4167 8.2375 15.475 8.575 15.475 8.925C15.475 9.79167 15.1708 10.5333 14.5625 11.15C13.9542 11.7667 13.2167 12.075 12.35 12.075C12.2667 12.075 12.1917 12.0708 12.125 12.0625C12.0583 12.0542 11.9833 12.05 11.9 12.05C11.6667 12.6333 11.2875 13.1042 10.7625 13.4625C10.2375 13.8208 9.65 14 9 14ZM9 21C9 19.7667 9.2375 18.6042 9.7125 17.5125C10.1875 16.4208 10.8333 15.4667 11.65 14.65C12.4667 13.8333 13.4208 13.1875 14.5125 12.7125C15.6042 12.2375 16.7667 12 18 12C18 13.2333 17.7625 14.3958 17.2875 15.4875C16.8125 16.5792 16.1667 17.5333 15.35 18.35C14.5333 19.1667 13.5792 19.8125 12.4875 20.2875C11.3958 20.7625 10.2333 21 9 21ZM9 21C9 19.7667 8.7625 18.6042 8.2875 17.5125C7.8125 16.4208 7.16667 15.4667 6.35 14.65C5.53333 13.8333 4.57917 13.1875 3.4875 12.7125C2.39583 12.2375 1.23333 12 0 12C0 13.2333 0.2375 14.3958 0.7125 15.4875C1.1875 16.5792 1.83333 17.5333 2.65 18.35C3.46667 19.1667 4.42083 19.8125 5.5125 20.2875C6.60417 20.7625 7.76667 21 9 21Z" fill="#8EBBAB"/>
</svg>
