<svg width="315" height="70" viewBox="0 0 315 70" fill="none" xmlns="http://www.w3.org/2000/svg">
<path d="M27.1108 65.2621C17.1925 59.6716 3.9314 51.9014 5.60835 39.4892C7.08671 28.4898 20.8222 27.6219 30.2881 28.6613C36.9628 29.398 43.5934 30.9823 50.1357 32.3749C57.7261 33.9794 65.2834 35.7151 72.8186 37.5113C87.8118 41.0735 102.728 44.8981 117.699 48.5309C147.222 55.6957 177.098 62.0834 207.614 64.3438C222.442 65.4438 237.391 65.5649 252.208 64.2631C259.732 63.6072 267.223 62.5981 274.626 61.1853C281.245 59.9239 287.931 58.4809 294.242 56.2103C299.626 54.2829 304.954 51.7197 308.904 47.764C312.854 43.8082 315.292 38.2177 314.972 32.5868C314.244 19.7912 303.553 10.7494 292.245 4.64425C289.421 3.12048 286.53 1.71781 283.64 0.315134C280.506 -1.19855 277.715 3.15076 280.859 4.67453C292.002 10.0632 304.888 16.2693 308.628 28.2072C310.217 33.2629 309.643 38.6113 306.179 42.9202C303.035 46.8356 298.048 49.4189 293.205 51.195C287.038 53.4453 280.495 54.8884 274.019 56.1498C266.738 57.5726 259.357 58.5919 251.943 59.2276C237.027 60.5193 221.979 60.3679 207.052 59.2377C176.635 56.9268 146.88 50.3978 117.456 43.233C102.584 39.6103 87.7677 35.816 72.8627 32.2942C65.3165 30.508 57.7592 28.7925 50.1688 27.1981C43.461 25.7954 36.7201 24.2717 29.8689 23.5653C18.9467 22.4351 5.77384 24.2111 1.26152 34.8069C-1.06634 40.2864 0.0479444 46.543 2.80608 51.6996C5.7297 57.1892 10.926 61.3669 16.2768 64.8383C18.8915 66.5336 21.6166 68.0675 24.3306 69.6114C27.3645 71.3169 30.1337 66.9575 27.1108 65.2521V65.2621Z" fill="url(#paint0_linear_35_98)"/>
<defs>
<linearGradient id="paint0_linear_35_98" x1="2.19929" y1="35.0087" x2="312.81" y2="35.0087" gradientUnits="userSpaceOnUse">
<stop stop-color="#42C17B"/>
<stop offset="0.07" stop-color="#3DBB76"/>
<stop offset="0.4" stop-color="#2CA563"/>
<stop offset="0.72" stop-color="#229757"/>
<stop offset="1" stop-color="#1F9354"/>
</linearGradient>
</defs>
</svg>
