<svg width="124" height="117" viewBox="0 0 124 117" fill="none" xmlns="http://www.w3.org/2000/svg">
<path opacity="0.51" d="M89.0877 5.81583C91.0091 8.09945 92.6852 10.6131 94.1651 13.2746C111.041 22.2119 121.089 36.2504 118.105 49.2046C114.115 66.4878 88.4499 75.269 60.7736 68.8207C33.0972 62.3723 13.8913 43.1423 17.8813 25.8591C21.2744 11.147 40.3822 2.61219 63.0547 4.36187C61.7792 2.99827 60.5283 1.62646 59.6044 0C26.4745 1.1911 0 26.7627 0 58.1501C0 89.5375 27.7581 116.349 62 116.349C96.2418 116.349 124 90.2932 124 58.1501C124 35.125 109.749 15.246 89.0877 5.81583Z" fill="url(#paint0_linear_35_203)"/>
<defs>
<linearGradient id="paint0_linear_35_203" x1="32.0261" y1="110.706" x2="90.9307" y2="8.38604" gradientUnits="userSpaceOnUse">
<stop stop-color="#FCFCFC"/>
<stop offset="1" stop-color="#C4ECF2"/>
</linearGradient>
</defs>
</svg>
