<svg width="22" height="23" viewBox="0 0 22 23" fill="none" xmlns="http://www.w3.org/2000/svg">
<path d="M2.87529 14.7705C1.86375 11.5865 -3.60708 4.77586 3.88207 1.08737C11.3712 -2.60112 12.3733 3.97629 15.3984 7.68857C16.3339 8.83557 18.4757 11.7292 21.5056 10.7203C21.7525 10.6394 22.0137 10.8297 21.9995 11.0915C21.9235 12.6859 21.1494 17.0835 14.8997 16.8788C14.5056 16.8646 14.1446 17.1121 14.0449 17.4928C13.9072 18.0116 13.7647 18.754 13.8407 19.4156C13.8834 19.8154 13.6223 20.1913 13.2328 20.2913C12.2593 20.5388 10.5687 20.7387 9.4099 19.5964C9.23893 19.4299 8.96349 19.4727 8.84952 19.6821C8.28439 20.7387 6.56525 23.1326 2.68533 22.6852C2.37664 22.6472 2.20093 22.3045 2.37664 22.0475C3.03675 21.0623 4.12427 18.6731 2.88479 14.7657L2.87529 14.7705Z" fill="url(#paint0_linear_35_189)"/>
<defs>
<linearGradient id="paint0_linear_35_189" x1="15.6686" y1="23.3327" x2="1.5985" y2="-3.94799" gradientUnits="userSpaceOnUse">
<stop stop-color="#5353EA"/>
<stop offset="0.45" stop-color="#8D89F7"/>
<stop offset="0.6" stop-color="#8A8AF4"/>
<stop offset="0.7" stop-color="#818FEC"/>
<stop offset="0.79" stop-color="#7297DF"/>
<stop offset="0.86" stop-color="#5DA3CC"/>
<stop offset="0.93" stop-color="#42B2B5"/>
<stop offset="1" stop-color="#20C697"/>
</linearGradient>
</defs>
</svg>
