<svg width="72" height="68" viewBox="0 0 72 68" fill="none" xmlns="http://www.w3.org/2000/svg">
<path opacity="0.51" d="M51.7283 3.36852C52.844 4.69119 53.8172 6.14708 54.6765 7.68861C64.4753 12.8651 70.3099 20.9962 68.5771 28.4992C66.2603 38.5097 51.358 43.5958 35.2879 39.8609C19.2177 36.126 8.06594 24.988 10.3827 14.9776C12.3529 6.45634 23.4477 1.51298 36.6124 2.52639C35.8718 1.7366 35.1455 0.942045 34.609 0C15.3723 0.689882 0 15.5009 0 33.6805C0 51.8601 16.1176 67.3895 36 67.3895C55.8824 67.3895 72 52.2978 72 33.6805C72 20.3444 63.7252 8.83048 51.7283 3.36852Z" fill="url(#paint0_linear_35_188)"/>
<defs>
<linearGradient id="paint0_linear_35_188" x1="18.5958" y1="64.1209" x2="52.6706" y2="4.78372" gradientUnits="userSpaceOnUse">
<stop stop-color="#FCFCFC"/>
<stop offset="1" stop-color="#C4ECF2"/>
</linearGradient>
</defs>
</svg>
