<svg width="2" height="2" viewBox="0 0 2 2" fill="none" xmlns="http://www.w3.org/2000/svg">
<path d="M0.121473 0.921737C0.121473 0.973911 0.121469 1.01739 0.130145 1.06087C0.138822 1.14782 0.14751 1.1826 0.182217 1.26087C0.2256 1.37391 0.286325 1.46087 0.373092 1.54782C0.546627 1.71304 0.763554 1.79999 1.0065 1.81738C1.10195 1.81738 1.20607 1.81739 1.29284 1.77391C1.35357 1.74782 1.42298 1.73043 1.47504 1.68695C1.5271 1.64347 1.58784 1.60869 1.6399 1.55652C1.79608 1.3826 1.89153 1.15652 1.87417 0.913043C1.87417 0.817391 1.85682 0.721739 1.82212 0.634783C1.77006 0.495653 1.71799 0.400002 1.61387 0.278263C1.57049 0.226089 1.50974 0.191305 1.45768 0.147827C1.44033 0.130436 1.41431 0.121741 1.38828 0.10435C1.24945 0.0434805 1.1193 0 0.963116 0C0.711491 0 0.477216 0.113045 0.295005 0.286957C0.260298 0.321739 0.225591 0.365219 0.199561 0.400001C0.164854 0.443479 0.138832 0.47826 0.112802 0.530433C0.0433878 0.669563 0.00867671 0.799999 0 0.95652C0 1.03478 0.00867566 1.12174 0.0260291 1.1913C0.0433825 1.26087 0.0780862 1.33913 0.104116 1.40869C0.12147 1.44348 0.130144 1.46956 0.156175 1.50434C0.199558 1.56521 0.242953 1.63478 0.30369 1.68695C0.503255 1.88695 0.772233 1.99999 1.04989 1.99999C1.18872 1.99999 1.33621 1.93913 1.43165 1.84347C1.5271 1.74782 1.59652 1.5913 1.58784 1.46086C1.57916 1.33043 1.53577 1.17391 1.43165 1.07826C1.32753 0.982606 1.19739 0.921737 1.04989 0.921737C1.03253 0.921737 1.0065 0.921737 0.989145 0.921737L1.13665 0.939128C1.13665 0.939128 1.05856 0.921736 1.01517 0.904345L1.14533 0.95652C1.14533 0.95652 1.06723 0.91304 1.02385 0.886954L1.13665 0.973912C1.13665 0.973912 1.06723 0.913042 1.0412 0.878259L1.12798 0.991303C1.12798 0.991303 1.07591 0.91304 1.05856 0.869562L1.11062 0.999997C1.11062 0.999997 1.08459 0.930433 1.08459 0.895651L1.10195 1.04347C1.10195 1.04347 1.10195 0.973912 1.10195 0.930434L1.08459 1.07826C1.08459 1.07826 1.10194 1.00869 1.11062 0.973912L1.05856 1.10434C1.05856 1.10434 1.09327 1.04348 1.11062 1.01739L1.02385 1.13043C1.02385 1.13043 1.08459 1.06956 1.11062 1.03478L0.997817 1.12174C0.997817 1.12174 1.05856 1.07826 1.10195 1.06087L0.971788 1.11304C0.971788 1.11304 1.04121 1.08695 1.08459 1.07826L0.937087 1.09565C0.937087 1.09565 1.0065 1.09565 1.0412 1.09565L0.893701 1.07826C0.893701 1.07826 0.954443 1.08695 0.980473 1.10434L0.850314 1.05217C0.850314 1.05217 0.893699 1.07826 0.91973 1.09565L0.806928 1.00869C0.806928 1.00869 0.850318 1.05217 0.867671 1.06956L0.780899 0.95652C0.780899 0.95652 0.824294 1.01739 0.83297 1.05217L0.780899 0.921737C0.780899 0.921737 0.806937 0.999998 0.815613 1.03478L0.798256 0.886954C0.798256 0.886954 0.798256 0.956519 0.798256 0.999997L0.815613 0.852174C0.815613 0.852174 0.806938 0.913042 0.789584 0.939128L0.841642 0.808693C0.841642 0.808693 0.81561 0.860867 0.798256 0.886954L0.885029 0.773913C0.885029 0.773913 0.850324 0.808693 0.83297 0.826084L0.945759 0.73913C0.945759 0.73913 0.911059 0.765217 0.885029 0.773913L1.01517 0.721738C1.01517 0.721738 0.963117 0.73913 0.937087 0.73913L1.08459 0.721738C1.08459 0.721738 1.02385 0.721738 0.997817 0.721738L1.14533 0.73913C1.14533 0.73913 1.07591 0.721739 1.0412 0.713044L1.17136 0.765215C1.17136 0.765215 1.11062 0.730435 1.08459 0.713044L1.19739 0.799999C1.19739 0.799999 1.154 0.756521 1.13665 0.73913L1.22342 0.852174C1.22342 0.852174 1.18871 0.8 1.18003 0.773913L1.23209 0.904345C1.23209 0.904345 1.21473 0.860867 1.21473 0.843476L1.23209 0.991303C1.23209 0.991303 1.23209 0.947824 1.23209 0.921737C1.23209 0.843476 1.22341 0.773913 1.18871 0.713044C1.16268 0.643479 1.12798 0.591304 1.07592 0.539131C0.980474 0.443479 0.824291 0.373914 0.69414 0.382609C0.563989 0.391305 0.407806 0.434783 0.312362 0.539131L0.22559 0.652171C0.17353 0.739128 0.156179 0.826087 0.147503 0.930434L0.121473 0.921737Z" fill="#EFDF92"/>
</svg>
