<svg width="53" height="49" viewBox="0 0 53 49" fill="none" xmlns="http://www.w3.org/2000/svg">
<path opacity="0.51" d="M37.8335 2.44948C38.6495 3.41128 39.3613 4.46996 39.9898 5.59091C47.1565 9.35508 51.4239 15.2677 50.1565 20.7237C48.462 28.003 37.5627 31.7014 25.8092 28.9855C14.0556 26.2696 5.89933 18.1704 7.59379 10.8912C9.03477 4.69484 17.1494 1.10019 26.7779 1.83711C26.2362 1.2628 25.705 0.685024 25.3126 0C11.2431 0.498199 0 11.2683 0 24.4879C0 37.7075 11.7883 49 26.33 49C40.8717 49 52.66 38.0258 52.66 24.4879C52.66 14.7903 46.6079 6.41777 37.8335 2.44602V2.44948Z" fill="url(#paint0_linear_35_178)"/>
<defs>
<linearGradient id="paint0_linear_35_178" x1="13.6008" y1="46.6266" x2="38.3063" y2="3.3585" gradientUnits="userSpaceOnUse">
<stop stop-color="#FCFCFC"/>
<stop offset="1" stop-color="#C4ECF2"/>
</linearGradient>
</defs>
</svg>
