<svg width="2" height="2" viewBox="0 0 2 2" fill="none" xmlns="http://www.w3.org/2000/svg">
<path d="M0.998089 1.00052C0.998089 1.00052 0.9901 0.960509 0.982113 0.936498L0.998089 1.07256C0.998089 1.03254 0.998089 0.984516 0.998089 0.944497L0.982113 1.08056C0.982113 1.03254 0.998088 0.992519 1.02205 0.944497L0.974119 1.06455C0.990092 1.02454 1.01406 0.984516 1.04601 0.944497L0.966137 1.04855C0.966137 1.04855 1.02204 0.984519 1.05399 0.960508L0.950161 1.04054C0.950161 1.04054 1.01406 1.00053 1.04601 0.984518L0.926203 1.03254C0.926203 1.03254 1.00607 1.00853 1.04601 1.00052L0.91024 1.01653C0.950171 1.01653 0.990093 1.01653 1.03801 1.01653L0.902246 1.00052C0.950163 1.00052 0.998087 1.02454 1.04601 1.04054L0.926203 0.992523C0.966135 1.00853 1.00607 1.03254 1.04601 1.06455L0.94218 0.984518C0.94218 0.984518 1.00607 1.04054 1.03003 1.07256L0.950161 0.968507C0.950161 0.968507 0.998081 1.04054 1.01405 1.08056L0.966137 0.960508C0.966137 0.960508 0.990103 1.03254 0.998089 1.07256L0.982113 0.936498C0.982113 0.98452 0.982113 1.03254 0.982113 1.08056L0.998089 0.944497C0.998089 0.992519 0.982114 1.04054 0.958155 1.08056L1.00607 0.960508C0.990099 1.00053 0.966143 1.04854 0.934198 1.08056L1.01405 0.976513C1.01405 0.976513 0.966143 1.03254 0.934198 1.05655L1.03801 0.976513C1.03801 0.976513 0.974129 1.01653 0.934198 1.03254L1.05399 0.984518C1.01406 1.00053 0.974121 1.01653 0.926203 1.01653L1.06197 1.00052C1.01405 1.00052 0.966139 1.00052 0.918222 1.00052L1.05399 1.01653C1.00607 1.01653 0.958153 1.00052 0.918222 0.976513L1.03801 1.02453C0.99808 1.00853 0.958149 0.984519 0.926203 0.960508L1.03003 1.04054C1.03003 1.04054 0.998086 1.00853 0.982113 0.992523C0.894264 0.904483 0.758495 0.848457 0.630715 0.848457C0.502934 0.848457 0.359179 0.904483 0.279317 0.992523C0.199454 1.08056 0.127583 1.21662 0.135569 1.34468C0.143556 1.47274 0.183481 1.6008 0.279317 1.69685C0.407097 1.8249 0.5828 1.92895 0.758498 1.96897C0.934197 2.00899 1.13386 2.01699 1.30955 1.95296C1.38942 1.92095 1.47726 1.88893 1.54115 1.84091C1.66094 1.75287 1.73283 1.68084 1.82068 1.56078C1.93248 1.40871 1.97241 1.22463 1.98838 1.04855C2.02831 0.68038 1.81269 0.328214 1.50921 0.144129C1.20573 -0.0399559 0.782452 -0.0559633 0.478974 0.144129C0.111605 0.384239 -0.0800643 0.832447 0.0317437 1.26465C0.0636888 1.3847 0.151533 1.50476 0.263341 1.56078C0.375148 1.61681 0.526897 1.64882 0.646691 1.6088C0.766485 1.56879 0.886275 1.49675 0.94218 1.3767C0.998083 1.25664 1.03003 1.12859 0.990095 0.992523L0.998089 1.00052Z" fill="#EFDF92"/>
</svg>
