<svg width="20" height="21" viewBox="0 0 20 21" fill="none" xmlns="http://www.w3.org/2000/svg">
<path d="M12.0619 20.1021C12.245 19.9196 12.4043 19.7148 12.5361 19.4924L12.6038 19.5601C13.0941 20.0513 13.7365 20.3617 14.426 20.4404C15.1156 20.5191 15.8114 20.3615 16.3997 19.9934C16.9881 19.6253 17.4342 19.0685 17.665 18.414C17.8958 17.7595 17.8977 17.0461 17.6704 16.3903C18.1212 16.185 18.5155 15.8734 18.8196 15.4823C19.1237 15.0913 19.3285 14.6324 19.4164 14.1449C19.5044 13.6574 19.4729 13.1558 19.3247 12.6831C19.1765 12.2105 18.9159 11.7807 18.5653 11.4308L15.1219 7.98731C15.8776 8.03701 16.625 7.8052 17.22 7.33657C17.815 6.86793 18.2155 6.19564 18.3442 5.44927C18.473 4.7029 18.3209 3.9353 17.9173 3.29441C17.5137 2.65352 16.8871 2.18472 16.1584 1.97836C9.45911 -0.409631 6.14437 -1.07827 2.57762 2.48848C0.927004 4.14268 -1.1317e-06 6.38412 -4.42563e-07 8.72098C-4.42563e-07 11.0578 0.927005 13.2993 2.57762 14.9535L7.72621 20.1021C8.30115 20.677 9.08094 21 9.89403 21C10.7071 21 11.4869 20.677 12.0619 20.1021ZM4.20349 13.3276C2.98361 12.1049 2.29853 10.4482 2.29853 8.72098C2.29853 6.99378 2.98361 5.3371 4.20349 4.11435C6.63078 1.68706 8.5195 1.69519 15.4233 4.15906C15.4525 4.16922 15.4823 4.17871 15.5121 4.18684C15.7036 4.24357 15.8655 4.37285 15.9631 4.54714C16.0607 4.72144 16.0865 4.92697 16.0348 5.11995C15.9831 5.31293 15.8582 5.47811 15.6865 5.5803C15.5148 5.6825 15.3101 5.71362 15.1158 5.66705L15.0778 5.65757L11.78 4.8907C11.5366 4.83396 11.2813 4.8581 11.0528 4.95946C10.8244 5.06083 10.6351 5.23389 10.5138 5.45244C10.3925 5.671 10.3458 5.92312 10.3806 6.17064C10.4155 6.41815 10.53 6.64757 10.707 6.82413L16.9395 13.0566C17.0832 13.2004 17.164 13.3953 17.164 13.5986C17.164 13.8019 17.0832 13.9968 16.9395 14.1405C16.7957 14.2843 16.6008 14.365 16.3975 14.365C16.1942 14.365 15.9993 14.2843 15.8556 14.1405L11.7909 10.0759C11.5753 9.86027 11.2829 9.73914 10.9779 9.73914C10.673 9.73914 10.3806 9.86027 10.165 10.0759C9.94941 10.2915 9.82828 10.5839 9.82828 10.8888C9.82828 11.1937 9.94941 11.4861 10.165 11.7017L15.3136 16.8503C15.4573 16.9941 15.5381 17.189 15.5381 17.3923C15.5381 17.5956 15.4573 17.7905 15.3136 17.9342C15.1699 18.078 14.9749 18.1587 14.7716 18.1587C14.5684 18.1587 14.3734 18.078 14.2297 17.9342L9.0811 12.7857C8.86549 12.57 8.57307 12.4489 8.26816 12.4489C7.96325 12.4489 7.67083 12.57 7.45523 12.7857C7.23963 13.0013 7.1185 13.2937 7.1185 13.5986C7.1185 13.9035 7.23963 14.1959 7.45523 14.4115L10.436 17.3923C10.5797 17.536 10.6605 17.731 10.6605 17.9342C10.6605 18.1375 10.5797 18.3325 10.436 18.4762C10.2923 18.6199 10.0973 18.7007 9.89403 18.7007C9.69076 18.7007 9.49581 18.6199 9.35208 18.4762L4.20349 13.3276Z" fill="#073E24"/>
</svg>
