<svg width="228" height="212" viewBox="0 0 228 212" fill="none" xmlns="http://www.w3.org/2000/svg">
<path opacity="0.51" d="M163.728 10.597C167.259 14.758 170.34 19.338 173.06 24.1875C204.074 40.4722 222.542 66.0517 217.057 89.6555C209.724 121.147 162.556 137.147 111.692 125.398C60.8271 113.648 25.5299 78.6095 32.8629 47.1178C39.0988 20.3109 74.2157 4.75967 115.884 7.94775C113.54 5.46314 111.241 2.96357 109.543 0C48.6557 2.17029 0 48.7642 0 105.955C0 163.146 51.0148 212 113.946 212C176.876 212 227.891 164.523 227.891 105.955C227.891 64.0011 201.7 27.7797 163.728 10.597Z" fill="url(#paint0_linear_35_134)"/>
<defs>
<linearGradient id="paint0_linear_35_134" x1="58.8586" y1="201.717" x2="165.723" y2="14.4855" gradientUnits="userSpaceOnUse">
<stop stop-color="#FCFCFC"/>
<stop offset="1" stop-color="#C4ECF2"/>
</linearGradient>
</defs>
</svg>
